<?xml version="1.0" standalone="no"?>
<!-- Generator: Adobe Fireworks 10, Export SVG Extension by Aaron Beall (http://fireworks.abeall.com) . Version: 0.6.1  -->
<!DOCTYPE svg PUBLIC "-//W3C//DTD SVG 1.1//EN" "http://www.w3.org/Graphics/SVG/1.1/DTD/svg11.dtd">
<svg id="Untitled-P%E1gina%201" viewBox="0 0 657 105" style="background-color:#ffffff00" version="1.1"
	xmlns="http://www.w3.org/2000/svg" xmlns:xlink="http://www.w3.org/1999/xlink" xml:space="preserve"
	x="0px" y="0px" width="657px" height="105px"
>
	<defs>
		<linearGradient id="gradient1" x1="50%" y1="-0.7812%" x2="50%" y2="100.7812%">
			<stop stop-color="#000000" stop-opacity="1" offset="0%"/>
			<stop stop-color="#000000" stop-opacity="0" offset="100%"/>
		</linearGradient>
	</defs>
	<g id="Camada%201">
		<g>
			<path d="M 250.0536 38.6016 L 253.1053 28.9141 L 206.8366 28.9141 L 203.785 38.6016 L 221.3517 38.6016 L 203.8215 93.9375 L 214.9567 93.9375 L 232.4869 38.6016 L 250.0536 38.6016 L 250.0536 38.6016 Z" fill="#ffffff"/>
			<path d="M 305.6654 28.9141 L 262.7565 28.9141 L 242.1484 94.0859 L 285.5373 94.0859 L 288.589 84.3984 L 256.3353 84.3984 L 262.3743 64.8438 L 289.9243 64.8438 L 292.9759 55.1563 L 265.5219 55.1563 L 270.84 38.6016 L 302.6137 38.6016 L 305.6654 28.9141 L 305.6654 28.9141 Z" fill="#ffffff"/>
			<path d="M 318.9145 95.0859 C 332.5455 95.0859 344.94 89.0313 349.23 75.5865 C 352.8827 64.1232 345.7611 58.7801 335.6472 56.2542 C 328.564 54.5056 321.0864 52.2712 323.0978 45.7623 C 324.5746 41.1964 328.952 37.6016 337.1115 37.6016 C 342.2951 37.6016 346.9131 38.0877 356.2762 40.5164 L 361.6503 31.2675 C 353.9179 28.8457 347.4586 27.9141 340.1631 27.9141 C 327.396 27.9141 315.5029 32.7579 311.438 45.4709 C 307.9327 56.6428 314.8212 62.7631 324.8495 65.7747 C 331.4974 67.8147 339.3828 69.3691 337.1727 76.4608 C 335.6445 81.3182 330.2216 85.3984 322.0621 85.3984 C 316.8785 85.3984 310.0526 84.9127 300.7855 82.484 L 295.8914 91.7326 C 303.6238 94.1544 311.619 95.0859 318.9145 95.0859 L 318.9145 95.0859 Z" fill="#ffffff"/>
			<path d="M 416.0536 38.6016 L 419.1053 28.9141 L 372.8366 28.9141 L 369.785 38.6016 L 387.3517 38.6016 L 369.8215 93.9375 L 380.9567 93.9375 L 398.4869 38.6016 L 416.0536 38.6016 L 416.0536 38.6016 Z" fill="#ffffff"/>
			<path d="M 487.0536 38.6016 L 490.1053 28.9141 L 443.8366 28.9141 L 440.785 38.6016 L 458.3517 38.6016 L 440.8215 93.9375 L 451.9567 93.9375 L 469.4869 38.6016 L 487.0536 38.6016 L 487.0536 38.6016 Z" fill="#ffffff"/>
			<path d="M 524.5839 36.7354 C 538.8868 36.7354 538.0927 47.2299 533.7523 60.9607 C 529.412 74.6915 523.3401 86.2646 509.1331 86.2646 C 494.9261 86.2646 496.0063 74.6915 500.3468 60.9607 C 504.6871 47.2299 510.3769 36.7354 524.5839 36.7354 L 524.5839 36.7354 ZM 506.2493 95 C 528.9037 95 539.5348 79.8896 545.4635 60.9607 C 551.3576 42.2279 550.122 28 527.4677 28 C 504.8133 28 494.4337 42.2279 488.6356 60.9607 C 482.7069 79.8896 483.595 95 506.2493 95 L 506.2493 95 Z" fill="#ffffff"/>
			<path d="M 590.5839 36.7354 C 604.8868 36.7354 604.0927 47.2299 599.7523 60.9607 C 595.412 74.6915 589.3401 86.2646 575.1331 86.2646 C 560.9261 86.2646 562.0063 74.6915 566.3468 60.9607 C 570.6871 47.2299 576.3769 36.7354 590.5839 36.7354 L 590.5839 36.7354 ZM 572.2493 95 C 594.9037 95 605.5348 79.8896 611.4635 60.9607 C 617.3576 42.2279 616.122 28 593.4677 28 C 570.8133 28 560.4337 42.2279 554.6356 60.9607 C 548.7069 79.8896 549.595 95 572.2493 95 L 572.2493 95 Z" fill="#ffffff"/>
			<path d="M 631.7303 29.0625 L 611.1484 94.0859 L 653.5774 94.0859 L 656.629 84.3984 L 625.3353 84.3984 L 642.8655 29.0625 L 631.7303 29.0625 L 631.7303 29.0625 Z" fill="#ffffff"/>
		</g>
		<path opacity="0.5412" d="M 91.6724 105 C 91.6724 105 92.6578 100.6224 94.5792 92.3316 L 106.8741 37.8747 C 107.8811 33.5394 107.4754 30.1793 105.6731 27.8948 C 103.9106 25.6563 100.877 24.521 96.6567 24.521 L 35.0487 24.521 C 26.6853 24.521 21.4531 28.7814 19.5037 37.1894 L 7.2084 91.6511 C 6.2062 95.9723 6.6097 99.3229 8.4072 101.6028 C 10.1863 103.8551 13.2616 105 17.5542 105 L 91.6724 105 Z" fill="url(#gradient1)"/>
		<path d="M 142.9325 105 C 151.1146 105 155.5536 101.216 158.3812 92.3309 C 158.3812 92.3309 161.8032 82.6401 165.2685 67.4129 C 168.7339 52.1856 170.6979 37.8747 170.6979 37.8747 C 171.1679 32.7696 171.3007 30.18 169.4945 27.8948 C 167.7267 25.6563 164.6877 24.521 160.4599 24.521 L 96.1785 24.521 C 87.7933 24.521 82.554 28.7811 80.6014 37.1894 L 64.8641 105 L 142.9325 105 Z" fill="#3c9de6"/>
		<path d="M 84.6254 80.5328 C 84.6154 75.5249 82.0498 28.5014 80.0999 36.9406 L 64.3841 105 L 84.6254 80.5328 Z" fill="#1c5a8e"/>
		<path d="M 84.7894 80.479 C 84.7894 80.479 85.7748 76.1014 87.6962 67.8106 L 99.9911 13.3538 C 100.9982 9.0184 100.5924 5.6584 98.7902 3.3739 C 97.0277 1.1354 93.994 0 89.7738 0 L 28.1658 0 C 19.8024 0 15.0245 4.5281 12.6207 12.6684 C 12.6207 12.6684 9.3296 21.6027 5.4979 38.6756 C 1.6662 55.7485 0.3255 67.1302 0.3255 67.1302 C -0.1995 71.6017 -0.2733 74.8019 1.5243 77.0819 C 3.3033 79.3342 6.3787 80.479 10.6712 80.479 L 84.7894 80.479 Z" fill="#38d687"/>
		<g opacity="0.5294">
			<path d="M 53.0661 60.3593 L 62.4129 60.3593 L 58.6063 20.1198 L 48.6241 20.1198 L 26.561 60.3593 L 35.9077 60.3593 L 39.8796 52.8144 L 52.5015 52.8144 L 53.0661 60.3593 L 53.0661 60.3593 ZM 51.054 30.9459 L 51.2202 30.9459 L 52.0092 45.8982 L 43.513 45.8982 L 51.054 30.9459 L 51.054 30.9459 Z" fill="#ffffff"/>
		</g>
		<g opacity="0.5294">
			<path d="M 120.7422 84.8802 C 125.6306 84.8802 129.6223 83.8782 132.7021 81.8544 C 135.7796 79.8405 137.7776 76.854 138.6745 72.9047 C 139.1519 70.8023 139.0088 68.9357 138.2624 67.3148 C 137.5159 65.6938 136.0308 64.6131 133.807 64.0728 C 135.8342 63.3262 137.4769 62.2062 138.7132 60.7228 C 139.9495 59.2393 140.7853 57.5398 141.2181 55.6339 C 142.0457 51.9892 141.2701 49.2482 138.9031 47.4013 C 136.5338 45.5642 132.8719 44.6407 127.9053 44.6407 L 114.159 44.6407 L 105.0209 84.8802 L 120.7422 84.8802 L 120.7422 84.8802 ZM 125.1252 67.9042 C 127.0219 67.9042 128.2979 68.3561 128.9574 69.2403 C 129.605 70.1343 129.7362 71.4507 129.3391 73.1994 C 128.971 74.8204 128.2002 76.0189 127.0365 76.795 C 125.8607 77.5809 124.2877 77.9641 122.3127 77.9641 L 115.9089 77.9641 L 118.1934 67.9042 L 125.1252 67.9042 L 125.1252 67.9042 ZM 121.9057 51.5569 L 126.3346 51.5569 C 128.5247 51.5569 130.0682 51.9499 130.9598 52.7161 C 131.8515 53.4824 132.1104 54.7104 131.7289 56.3903 C 131.3897 57.8836 130.6052 59.0134 129.3851 59.7797 C 128.165 60.5459 126.4994 60.9487 124.3885 60.988 L 119.764 60.988 L 121.9057 51.5569 L 121.9057 51.5569 Z" fill="#ffffff"/>
		</g>
		<g>
			<path d="M 53.0661 59.7305 L 62.4129 59.7305 L 58.6063 19.491 L 48.6241 19.491 L 26.561 59.7305 L 35.9077 59.7305 L 39.8796 52.1856 L 52.5015 52.1856 L 53.0661 59.7305 L 53.0661 59.7305 ZM 51.054 30.3172 L 51.2202 30.3172 L 52.0092 45.2695 L 43.513 45.2695 L 51.054 30.3172 L 51.054 30.3172 Z" fill="#ffffff"/>
		</g>
		<g>
			<path d="M 120.7422 84.2515 C 125.6306 84.2515 129.6223 83.2494 132.7021 81.2257 C 135.7796 79.2117 137.7776 76.2252 138.6745 72.2759 C 139.1519 70.1736 139.0088 68.307 138.2624 66.686 C 137.5159 65.065 136.0308 63.9844 133.807 63.444 C 135.8342 62.6974 137.4769 61.5775 138.7132 60.094 C 139.9495 58.6106 140.7853 56.911 141.2181 55.0051 C 142.0457 51.3604 141.2701 48.6195 138.9031 46.7725 C 136.5338 44.9354 132.8719 44.012 127.9053 44.012 L 114.159 44.012 L 105.0209 84.2515 L 120.7422 84.2515 L 120.7422 84.2515 ZM 125.1252 67.2754 C 127.0219 67.2754 128.2979 67.7274 128.9574 68.6115 C 129.605 69.5055 129.7362 70.8219 129.3391 72.5706 C 128.971 74.1916 128.2002 75.3902 127.0365 76.1663 C 125.8607 76.9522 124.2877 77.3353 122.3127 77.3353 L 115.9089 77.3353 L 118.1934 67.2754 L 125.1252 67.2754 L 125.1252 67.2754 ZM 121.9057 50.9281 L 126.3346 50.9281 C 128.5247 50.9281 130.0682 51.3211 130.9598 52.0874 C 131.8515 52.8537 132.1104 54.0817 131.7289 55.7616 C 131.3897 57.2549 130.6052 58.3846 129.3851 59.1509 C 128.165 59.9172 126.4994 60.32 124.3885 60.3593 L 119.764 60.3593 L 121.9057 50.9281 L 121.9057 50.9281 Z" fill="#ffffff"/>
		</g>
		<g>
			<path d="M 53.0661 59.7305 L 62.4129 59.7305 L 58.6063 19.491 L 48.6241 19.491 L 26.561 59.7305 L 35.9077 59.7305 L 39.8796 52.1856 L 52.5015 52.1856 L 53.0661 59.7305 L 53.0661 59.7305 ZM 51.054 30.3172 L 51.2202 30.3172 L 52.0092 45.2695 L 43.513 45.2695 L 51.054 30.3172 L 51.054 30.3172 Z" fill="#ffffff"/>
		</g>
		<g>
			<path d="M 120.7422 84.2515 C 125.6306 84.2515 129.6223 83.2494 132.7021 81.2257 C 135.7796 79.2117 137.7776 76.2252 138.6745 72.2759 C 139.1519 70.1736 139.0088 68.307 138.2624 66.686 C 137.5159 65.065 136.0308 63.9844 133.807 63.444 C 135.8342 62.6974 137.4769 61.5775 138.7132 60.094 C 139.9495 58.6106 140.7853 56.911 141.2181 55.0051 C 142.0457 51.3604 141.2701 48.6195 138.9031 46.7725 C 136.5338 44.9354 132.8719 44.012 127.9053 44.012 L 114.159 44.012 L 105.0209 84.2515 L 120.7422 84.2515 L 120.7422 84.2515 ZM 125.1252 67.2754 C 127.0219 67.2754 128.2979 67.7274 128.9574 68.6115 C 129.605 69.5055 129.7362 70.8219 129.3391 72.5706 C 128.971 74.1916 128.2002 75.3902 127.0365 76.1663 C 125.8607 76.9522 124.2877 77.3353 122.3127 77.3353 L 115.9089 77.3353 L 118.1934 67.2754 L 125.1252 67.2754 L 125.1252 67.2754 ZM 121.9057 50.9281 L 126.3346 50.9281 C 128.5247 50.9281 130.0682 51.3211 130.9598 52.0874 C 131.8515 52.8537 132.1104 54.0817 131.7289 55.7616 C 131.3897 57.2549 130.6052 58.3846 129.3851 59.1509 C 128.165 59.9172 126.4994 60.32 124.3885 60.3593 L 119.764 60.3593 L 121.9057 50.9281 L 121.9057 50.9281 Z" fill="#ffffff"/>
		</g>
	</g>
</svg>